HIERARCHY
ROOT SimulationBone
{
	OFFSET 0.000000 0.000000 0.000000
	CHANNELS 6 Xposition Yposition Zposition Zrotation Yrotation Xrotation 
	JOINT Hips
	{
		OFFSET 0.000000 0.000000 0.000000
		CHANNELS 6 Xposition Yposition Zposition Zrotation Yrotation Xrotation 
		JOINT RightUpLeg
		{
			OFFSET 0.103458 1.857820 10.548502
			CHANNELS 3 Zrotation Yrotation Xrotation
			JOINT RightLeg
			{
				OFFSET 43.500000 -0.000023 -0.000011
				CHANNELS 3 Zrotation Yrotation Xrotation
				JOINT RightFoot
				{
					OFFSET 42.372192 0.000038 0.000002
					CHANNELS 3 Zrotation Yrotation Xrotation
					JOINT RightToe
					{
						OFFSET 17.299992 -0.000004 0.000006
						CHANNELS 3 Zrotation Yrotation Xrotation
						End Site
						{
							OFFSET 0.000000 0.000000 0.000000
						}
					}
				}
			}
		}
		JOINT LeftUpLeg
		{
			OFFSET 0.103461 1.857814 -10.548508
			CHANNELS 3 Zrotation Yrotation Xrotation
			JOINT LeftLeg
			{
				OFFSET 43.500042 -0.000015 0.000008
				CHANNELS 3 Zrotation Yrotation Xrotation
				JOINT LeftFoot
				{
					OFFSET 42.372253 0.000008 0.000006
					CHANNELS 3 Zrotation Yrotation Xrotation
					JOINT LeftToe
					{
						OFFSET 17.299973 -0.000014 0.000011
						CHANNELS 3 Zrotation Yrotation Xrotation
						End Site
						{
							OFFSET 0.000000 0.000000 0.000000
						}
					}
				}
			}
		}
		JOINT Spine
		{
			OFFSET 6.901966 -2.603737 -0.000007
			CHANNELS 3 Zrotation Yrotation Xrotation
			JOINT Spine1
			{
				OFFSET 12.588102 0.000017 0.000001
				CHANNELS 3 Zrotation Yrotation Xrotation
				JOINT Spine2
				{
					OFFSET 12.343197 -0.000013 0.000000
					CHANNELS 3 Zrotation Yrotation Xrotation
					JOINT Neck
					{
						OFFSET 25.832905 -0.000008 0.000000
						CHANNELS 3 Zrotation Yrotation Xrotation
						JOINT Head
						{
							OFFSET 11.766610 0.000009 -0.000002
							CHANNELS 3 Zrotation Yrotation Xrotation
							End Site
							{
								OFFSET 0.000000 0.000000 0.000000
							}
						}
					}
					JOINT RightShoulder
					{
						OFFSET 19.745903 -1.480377 6.000115
						CHANNELS 3 Zrotation Yrotation Xrotation
						JOINT RightArm
						{
							OFFSET 11.284125 -0.000014 -0.000024
							CHANNELS 3 Zrotation Yrotation Xrotation
							JOINT RightForeArm
							{
								OFFSET 33.000046 -0.000012 0.000029
								CHANNELS 3 Zrotation Yrotation Xrotation
								JOINT RightHand
								{
									OFFSET 25.199989 0.000034 0.000012
									CHANNELS 3 Zrotation Yrotation Xrotation
									End Site
									{
										OFFSET 0.000000 0.000000 0.000000
									}
								}
							}
						}
					}
					JOINT LeftShoulder
					{
						OFFSET 19.746098 -1.480362 -6.000071
						CHANNELS 3 Zrotation Yrotation Xrotation
						JOINT LeftArm
						{
							OFFSET 11.284137 -0.000006 -0.000008
							CHANNELS 3 Zrotation Yrotation Xrotation
							JOINT LeftForeArm
							{
								OFFSET 33.000095 0.000017 0.000000
								CHANNELS 3 Zrotation Yrotation Xrotation
								JOINT LeftHand
								{
									OFFSET 25.199778 0.000144 0.000423
									CHANNELS 3 Zrotation Yrotation Xrotation
									End Site
									{
										OFFSET 0.000000 0.000000 0.000000
									}
								}
							}
						}
					}
				}
			}
		}
	}
}
MOTION
Frames: 6
Frame Time: 0.016667
55.023994 0.000000 -351.228157 0.000000 -61.691743 0.000000 -18.719366 83.790337 -5.951010 65.380040 -13.769002 -177.634927 118.966745 8.984404 178.368150 -97.245268 3.372914 -12.601007 80.794163 7.436500 -5.870726 21.454562 0.003110 0.000010 165.334469 -0.221994 179.432785 -34.052474 1.764006 9.564985 96.727130 -6.915859 -6.062595 21.454553 -0.003087 -0.000003 14.029097 -0.807583 2.450349 18.006686 -1.986912 4.745436 17.689568 -1.958388 4.757300 -7.773040 -12.374019 -8.765610 -31.195385 3.985730 -14.280910 -153.426018 -72.552103 -28.691413 37.620408 45.335093 66.749197 -42.078838 -16.223414 1.621948 -21.442769 -11.848026 39.722296 -172.021440 85.305381 9.688264 -35.070295 -47.737325 7.243904 -118.117807 -0.982428 -3.462976 -14.701468 8.001592 -12.608830 
55.947427 0.000000 -346.907719 0.000000 -61.631596 0.000000 -18.427753 84.600245 -6.304830 65.245711 -15.182060 -178.073006 115.034482 9.224604 175.347847 -93.953138 2.852635 -13.335769 80.891294 7.892920 -6.134472 21.454559 0.003112 0.000017 169.883601 1.354907 179.224130 -28.710106 3.051525 9.626220 88.018719 -7.798466 -7.123854 21.454546 -0.003099 0.000001 13.687658 -1.329615 2.387284 17.308533 -3.001558 4.549797 16.991050 -2.974174 4.567783 -8.158239 -12.153093 -8.918899 -30.151348 3.986977 -14.346843 -153.723719 -73.022474 -28.374423 37.931687 43.930797 67.352698 -43.138049 -16.304558 1.655922 -21.970270 -11.752639 40.319671 -161.663277 84.796807 20.128061 -30.742113 -49.430272 5.116946 -121.832516 -1.494147 -3.584640 -15.129525 8.752761 -11.381099 
56.888338 0.000000 -342.623102 0.000000 -61.633197 0.000000 -18.177786 85.272369 -6.466287 65.151873 -16.076064 -178.553686 111.947127 8.813708 173.412137 -89.357383 1.645734 -12.742843 81.044981 7.538528 -6.202406 21.454558 0.003105 0.000019 173.941545 2.559497 -179.627049 -24.262867 3.909736 8.951045 79.798431 -7.761887 -6.103712 21.454550 -0.003097 0.000003 13.320676 -1.721223 2.298118 16.566132 -3.753863 4.327700 16.248279 -3.727814 4.350244 -8.143872 -12.494346 -8.778560 -29.376550 4.719845 -14.598428 -153.354014 -72.949989 -28.755685 37.573993 42.486337 67.620176 -44.318566 -16.341861 1.693712 -21.676203 -12.472282 38.942422 -158.449538 84.058669 23.379827 -26.771583 -50.451348 2.858265 -124.202700 -1.704254 -3.657594 -15.585290 8.830945 -11.660610 
57.845465 0.000000 -338.367669 0.000000 -61.693574 0.000000 -17.893965 85.782527 -6.451221 65.161142 -16.396758 -179.019927 109.854779 8.046050 172.247035 -83.750626 0.097362 -11.363270 81.256267 6.590921 -6.404813 21.454557 0.003097 0.000018 177.422296 2.925331 -177.926997 -21.272372 4.100169 7.931882 72.336798 -6.774066 -3.472460 21.454556 -0.003090 0.000003 12.952580 -1.972492 2.203908 15.826687 -4.227964 4.119246 15.508544 -4.203183 4.144675 -7.924069 -13.001059 -8.465006 -28.785411 5.704265 -14.821143 -152.811586 -72.567541 -29.322259 36.716895 41.179401 67.473023 -45.613954 -16.385783 1.735690 -21.099937 -13.614777 36.731839 -158.775579 83.301778 23.063015 -23.206551 -51.059441 0.639366 -125.380735 -1.702086 -3.701739 -15.849437 8.321409 -13.089296 
58.817542 0.000000 -334.134785 0.000000 -61.810021 0.000000 -17.499803 86.106537 -6.275725 65.335502 -16.089202 -179.411951 108.881998 7.154793 171.495204 -77.391424 -1.402180 -9.664812 81.535710 5.269903 -7.071541 21.454557 0.003095 0.000016 -179.827078 2.108307 -176.514286 -20.282667 3.288390 6.971793 65.950147 -4.974333 0.391136 21.454558 -0.003088 0.000002 12.607524 -2.073159 2.125316 15.136828 -4.406552 3.963235 14.818539 -4.382717 3.989757 -7.690619 -13.276721 -8.097853 -28.284675 6.455640 -14.811641 -152.573010 -72.110934 -29.579307 35.518147 40.178057 66.813661 -47.018608 -16.486716 1.784556 -20.820017 -14.816506 34.853112 -160.144301 82.635199 21.689538 -20.022528 -51.517391 -1.450477 -125.518495 -1.579436 -3.717239 -15.673782 7.330529 -15.314440 
59.803307 0.000000 -329.917812 0.000000 -61.980063 0.000000 -16.954312 86.225908 -5.972880 65.740941 -15.199428 -179.691756 109.111306 6.336474 170.840548 -70.523532 -2.579601 -8.027552 81.875095 3.847993 -8.370817 21.454556 0.003102 0.000016 -177.961284 0.094858 -176.183870 -21.779969 1.474021 6.407762 61.112145 -2.709057 4.906806 21.454551 -0.003097 0.000001 12.312620 -2.033093 2.074542 14.549417 -4.310912 3.878948 14.231137 -4.287575 3.904894 -7.627219 -13.046756 -7.766436 -27.748056 6.638173 -14.445478 -152.923223 -71.758798 -29.228742 34.059328 39.598623 65.565348 -48.531996 -16.673643 1.844084 -21.222720 -15.822963 34.101410 -161.289303 82.133339 20.537702 -17.131995 -52.032115 -3.373283 -124.779752 -1.411312 -3.699744 -14.874437 5.989432 -17.969966 
